<?xml version="1.0" encoding="UTF-8"?>
<svg id="Layer_2" data-name="Layer 2" xmlns="http://www.w3.org/2000/svg" viewBox="0 0 179.86 179.86">
  <defs>
    <style>
      .cls-1 {
        fill: #fb6107;
      }

      .cls-2 {
        fill: #754c29;
      }
    </style>
  </defs>
  <path class="cls-1" d="M157.12,133.26c-6.29-2.94-11.62-8.33-14.22-14.84-.89-2.11-1.26-4.47-2.22-6.56-6.35-14.71-17.38-20.49-32.65-14.65-5.4,2.08-10.52,5.04-15.09,8.6-4.33,3.86-12.4,10.8-18.6,8.54-6.23-2.99-4.4-12.51-3.39-18.35.33-6.1.41-12.23.25-18.34-.21-3.66-.15-7.56-1.49-11-1.26-3.41-3.2-6.63-5.64-9.36-10.04-11.74-29.44-11.16-36.61,3.25-3.13,6.53-1.63,14.66,3.42,19.78,2.57,2.69,5.9,4.59,9.46,5.62,0,0,.11.47.11.47.01.04-.54-.6-.54-.59.31.13.39.21.54.31,4.72,4.89,2.43,16.13,2.62,22.45.08,7.43,1.52,14.98,5.19,21.37,5.26,9.48,15.34,14.29,25.83,14.99,5.98-.63,12.18-2.19,17.03-5.83,5.62-4.95,10.78-10.95,17.54-14.56,5.72-3.31,12.31-3.25,15.81,3.06,2.57,4.89,6.53,9.26,11.75,11.31,3.41,1.45,7.21,2.05,10.9,1.85,3.92-.28,15.77-1.66,9.98-7.52h0ZM157.23,133.1c7.63,7.3-11.55,9.25-15.79,8.29-8.06-1.06-14.33-5.98-18.17-13.01-3.2-5.53-8.8-5.28-13.78-2.32-6.68,3.71-11.47,9.59-17.13,14.65-5.1,3.87-11.51,5.53-17.75,6.27-.5.11-1.13-.02-1.61-.06-6.77-.63-13.56-2.76-18.95-7.02-9.42-7.31-12.9-19.88-12.87-31.29,0-5.62,1.03-11.3.03-16.86-.32-1.53-.64-3.19-1.77-4.29-.04-.04-.15-.1-.06-.06,0-.01-.56-.6-.55-.62,0,0,.56.61.56.61-7.31-2.25-13.44-8.5-14.59-16.18-.92-5.69,1.03-11.59,4.87-15.8,9.68-10.29,25.8-8.94,34.85,1.47,3.12,3.52,5.65,7.77,6.67,12.24.51,2.81.68,5.67.85,8.51.23,6.41.5,12.85.04,19.25-.88,5.22-2.52,17.26,5.84,16.2,5.48-1.14,10.06-5.23,14.16-8.9,8.85-6.47,19.84-12.18,31.1-10.44,9.02,1.66,15.31,9.6,18.47,17.72.91,2.09,1.27,4.5,2.09,6.63,2.36,6.47,7.4,11.81,13.48,15h0Z"/>
  <path class="cls-1" d="M38.32,85.96c4.64-.13,9.15.49,13.75.63,3.05-.14,5.91-1.51,8.63-2.74,4.1-2.01,7.5-4.6,10.76-7.96,0,0,.17.11.17.11-1.69,4.47-5.66,8.06-10.2,9.6-2.97,1.18-6.2,1.17-9.29,1.64-3.07.59-6.25,1.08-9.36.36-1.54-.3-3.07-.71-4.5-1.44,0,0,.05-.19.05-.19h0Z"/>
  <path class="cls-1" d="M42.39,93.91c9.16,2.65,19.1,2.05,27.58-2.36.58-.29,1.16-.56,1.77-.83-.97.86-1.93,1.79-3.02,2.51-7.59,5.28-18.5,5.7-26.33.69h0Z"/>
  <path class="cls-1" d="M42.39,101.58c9.33,2.7,19.04,2.62,28.38,0-8.34,5.35-20.04,5.4-28.38,0h0Z"/>
  <path class="cls-1" d="M42.33,113.12c9.67,1.89,19.69,1.15,28.44-3.61-7.24,7.3-19.53,8.32-28.44,3.61h0Z"/>
  <path class="cls-1" d="M46.78,129.42c10.31-2.73,20.96-6.97,26.68-16.52-3.16,11.12-15.87,16.7-26.68,16.52h0Z"/>
  <path class="cls-1" d="M59.05,141.9c7.7-5.91,16.76-13.17,16.89-23.69.02-1.44-.23-2.88-.5-4.35.69,1.32,1.21,2.76,1.47,4.27,1.59,11.07-8.49,20.01-17.87,23.78h0Z"/>
  <path class="cls-1" d="M79.07,113.7c7.31,6.9,7.92,18.69,3.87,27.47-.61,1.25-1.29,2.47-2.01,3.64.47-1.95,1.15-3.99,1.52-5.95,1.99-8.45,1.14-17.6-3.38-25.16h0Z"/>
  <path class="cls-1" d="M84.48,111.25c8.6,2.61,14.34,12.09,12.63,20.92-.22,1.23-.61,2.43-.98,3.6-.06-1.26.06-2.46,0-3.67,0-8.5-4.74-16.07-11.65-20.85h0Z"/>
  <path class="cls-1" d="M92.38,105.11c9.02.7,15.91,8.73,15.31,17.76-.08,1.21-.31,2.41-.54,3.58-.26-1.73-.37-3.56-.78-5.25-1.46-7.75-6.86-13.07-14-16.1h0Z"/>
  <path class="cls-1" d="M104.41,97.33c9.31,3.02,13.77,13.08,11.43,22.3-.35,1.25-.78,2.47-1.25,3.65.08-1.86.35-3.81.29-5.66.23-8.27-3.67-15.59-10.48-20.29h0Z"/>
  <path class="cls-1" d="M121.51,94.28c4.97,7.77,4.31,18.46-.55,26.13-.69,1.1-1.52,2.11-2.34,3.1.44-1.23,1.03-2.35,1.46-3.54,3.31-8.14,3.84-17.19,1.43-25.69h0Z"/>
  <path class="cls-1" d="M135.94,102.64c2.74,8.48-3.91,16.92-10.7,21.3-3.63,2.1-3.73,2.15-.61-.77,5.61-5.57,11.33-12.18,11.31-20.53h0Z"/>
  <path class="cls-1" d="M142.97,117.35c-1.72,7.53-8.37,14.53-16.34,14.93,6.98-3.16,12.04-8.73,16.34-14.93h0Z"/>
  <path class="cls-1" d="M146.05,123.51c1.15,5.97-2.59,12.27-7.92,14.92-.76.37-1.57.66-2.38.9.59-.63,1.24-1.13,1.81-1.71,4.18-3.86,6.95-8.5,8.48-14.11h0Z"/>
  <path class="cls-1" d="M151.41,129.42c1.55,4.01.37,9.84-3.85,11.7,2.02-3.84,2.47-7.54,3.85-11.7h0Z"/>
  <path class="cls-1" d="M35.05,73.25c6.01,4.47,5.42,4.97,11.31,0,.07-.09.23-.04.18.09-1.85,4.18-5.4,7.9-9.37,3.43-.73-.86-2.08-2.54-2.25-3.56.05-.03.1,0,.14.04h0Z"/>
  <path class="cls-1" d="M47.02,56.37c-2.06-4.12-3.76-8.67-3.84-13.33.14-1.58.52-3.19,1.4-4.56.05-.08.19-.05.19.05.63,4.55.25,8.89,1.32,13.35.29,1.48.67,2.95,1.11,4.41.04.11-.13.19-.18.08h0Z"/>
  <path class="cls-1" d="M42.29,55.67c-2.29-5.05-4.56-13.33.77-17.22.08-.06.19.03.16.12-.79,2.94-1.36,5.39-1.72,8.35-.15,2.9.24,5.85.97,8.68.04.11-.13.18-.19.08h0Z"/>
  <path class="cls-1" d="M34.49,57.31c-.98-4.34-2.39-8.79-4.95-12.42-.75-1.18-1.54-2.22-2.97-2.95-.09-.04-.07-.18.02-.2,5.63-.58,6.88,6.77,7.68,10.91.22,1.54.39,3.08.42,4.64,0,.12-.18.14-.2.02h0Z"/>
  <path class="cls-1" d="M38.04,55.63c-.46-3.23-1.52-6.45-3.32-9.15-1.99-2.67-4.3-4.39-7.05-6.35-.05-.03-.07-.1-.03-.15.43-.12.94.04,1.4.06,5.15.65,7.8,5.97,8.78,10.51.32,1.68.51,3.38.42,5.08,0,.12-.19.13-.2,0h0Z"/>
  <path class="cls-1" d="M47.66,35.02c-.09,5.16-7.76,5.44-7.97,0,.2-5.45,7.88-5.16,7.97,0h0ZM47.66,35.02c-.17-4.13-5.91-3.85-5.97,0,.05,3.86,5.8,4.13,5.97,0h0Z"/>
  <path class="cls-1" d="M27.95,39.02c-.09,5.16-7.76,5.44-7.97,0,.2-5.45,7.88-5.16,7.97,0h0ZM27.95,39.02c-.17-4.13-5.91-3.85-5.97,0,.05,3.86,5.8,4.13,5.97,0h0Z"/>
  <path class="cls-1" d="M33.26,66.33c2.57,0,2.58-4,0-4s-2.58,4,0,4h0Z"/>
  <path class="cls-1" d="M47.05,65.92c2.57,0,2.58-4,0-4s-2.58,4,0,4h0Z"/>
  <g>
    <path class="cls-1" d="M77.46,63.29c-.22,0-.24.13-.24.28v7.85c0,1.04-.93,1.56-1.83,1.56s-1.82-.52-1.82-1.56v-7.85c0-.15-.02-.28-.24-.28h-.48c-1.02,0-1.52-.83-1.52-1.67s.5-1.69,1.52-1.69h5.09c1.02,0,1.52.85,1.52,1.69s-.5,1.67-1.52,1.67h-.48Z"/>
    <path class="cls-1" d="M85.25,61.42c0-1.04.93-1.56,1.83-1.56s1.81.52,1.81,1.56v10c0,1.04-.91,1.56-1.81,1.56s-1.83-.52-1.83-1.56v-2.69c0-.44-.3-.74-.8-.74s-.8.3-.8.74v2.69c0,1.04-.91,1.56-1.82,1.56s-1.83-.52-1.83-1.56v-10c0-1.04.93-1.56,1.83-1.56s1.82.52,1.82,1.56v2.56c0,.44.3.74.8.74s.8-.3.8-.74v-2.56Z"/>
    <path class="cls-1" d="M91.71,72.9c-1.39,0-1.89-.94-1.89-2.24v-8.48c0-1.3.5-2.24,1.89-2.24h3.59c.94,0,1.5.63,1.5,1.67,0,.76-.46,1.63-1.5,1.63h-1.09c-.44,0-.74.3-.74.8s.3.8.74.8h1.02c.89,0,1.33.72,1.33,1.59,0,.8-.44,1.59-1.33,1.59h-1.02c-.44,0-.74.3-.74.8s.3.8.74.8h1.09c.94,0,1.5.63,1.5,1.67,0,.76-.46,1.63-1.5,1.63h-3.59Z"/>
    <path class="cls-1" d="M102.77,72.9c-1.39,0-1.89-.94-1.89-2.24v-8.48c0-1.3.5-2.24,1.89-2.24h3.59c.94,0,1.5.63,1.5,1.67,0,.76-.46,1.63-1.5,1.63h-1.09c-.44,0-.74.3-.74.8s.3.8.74.8h1.02c.89,0,1.33.72,1.33,1.59,0,.8-.44,1.59-1.33,1.59h-1.02c-.44,0-.74.3-.74.8s.3.8.74.8h1.09c.94,0,1.5.63,1.5,1.67,0,.76-.46,1.63-1.5,1.63h-3.59Z"/>
    <path class="cls-1" d="M112.67,59.86c1.04,0,2.02.43,2.3,1.57l2.28,9.65c.37,1.56-.72,1.89-1.7,1.89-2.09,0-1.54-2.09-2.24-2.09h-1.15c-.7,0-.15,2.09-2.24,2.09-.98,0-2.06-.33-1.7-1.89l2.19-9.65c.26-1.15,1.24-1.57,2.28-1.57ZM112.73,64.45l-.5,3.57c-.02.15-.06.35.15.35h.67c.19,0,.17-.2.15-.35l-.46-3.57Z"/>
    <path class="cls-1" d="M121.8,67.97c-.09,0-.28,0-.28.28v3.17c0,1.04-.93,1.56-1.83,1.56s-1.82-.52-1.82-1.56v-9.24c0-1.3.5-2.24,1.89-2.24h2.93c2.3,0,3.93,1.69,3.93,3.93,0,1.59-.46,2.63-1.26,3.26.22.28.46.59.61.93.52,1.13.76,2.43.76,3.58,0,.89-.65,1.35-1.5,1.35s-1.76-.3-1.95-1.41c-.2-1.24-.57-2.3-.7-2.59-.22-.5-.52-1-.78-1ZM122.99,64.08c0-.61-.22-1.2-.87-1.2-.57,0-.85.5-.85,1.2s.28,1.2.85,1.2c.65,0,.87-.59.87-1.2Z"/>
    <path class="cls-1" d="M129.36,72.9c-1.39,0-1.89-.94-1.89-2.24v-9.24c0-1.04.93-1.56,1.83-1.56s1.82.52,1.82,1.56v7.63c0,.46.15.72.7.72h1.17c.82,0,1.37.69,1.37,1.56s-.56,1.57-1.37,1.57h-3.63Z"/>
    <path class="cls-1" d="M138.93,67.12c-.15.35-.24.65-.24,1.33v2.96c0,1.04-.91,1.56-1.82,1.56s-1.83-.52-1.83-1.56v-2.96c0-.69-.11-.98-.26-1.33l-1.96-4.82c-.63-1.54-.31-2.45,1.28-2.45.74,0,1.58.3,1.85,1.2l.89,2.91.85-2.91c.26-.91,1.11-1.2,1.85-1.2,1.59,0,1.89.91,1.28,2.45l-1.89,4.82Z"/>
  </g>
  <g>
    <path class="cls-2" d="M84.74,102.01c-.72,2.17-2.03,3.46-3.66,3.52-1.31.05-2.28-.54-2.01-3.27.53-5.31.8-7.96,1.3-13.17-1.56,5.06-2.31,7.55-3.68,12.42-.71,2.51-1.47,2.45-1.98,2.05-.63-.5-.67-1.57-.56-3.54.43-8.4.42-12.39-.56-20.4-.3-2.56.62-3.44,2.25-3.44,1.3,0,2.02.6,1.95,2.8-.13,4.02-.25,6.05-.56,10.19,1.17-4.19,1.84-6.32,3.26-10.68.48-1.5,1.35-2.22,2.47-2.22.94,0,1.72.45,1.56,2.31-.37,4.57-.56,6.87-.9,11.46,1.38-4.33,2.07-6.5,3.42-10.83.67-2.15,1.55-3.02,2.85-3.02,1.63,0,2.67,1.07,1.95,3.56-2.43,8.41-3.97,13.08-7.1,22.28Z"/>
    <path class="cls-2" d="M94.78,99.43c-4.4,2.39-5.31-3.26-4.37-9.73.94-6.47,3.47-13.54,8.49-13.54s5.38,5.29,4.33,10.12c-1.05,4.83-4.05,10.76-8.45,13.15ZM95.84,93.49c1.2-.47,1.91-3.3,2.43-6.04.52-2.74.86-5.49-.42-5.33-1.28.16-1.93,3.13-2.4,6.04-.47,2.91-.82,5.8.39,5.33Z"/>
    <path class="cls-2" d="M109.48,86.99c-.14.03-.41.09-.5.47-.37,1.71-.56,2.56-.94,4.26-.31,1.4-1.9,2.61-3.27,3.14s-2.51.3-2.17-1.26c1.23-5.58,1.84-8.36,3.06-13.94.43-1.96,1.43-3.38,3.34-3.39,1.61,0,2.42,0,4.03,0,3.16,0,5.06,1.94,4.59,4.52-.33,1.84-1.24,3.12-2.59,4.07.27.28.57.58.72.94.55,1.19.67,2.59.43,3.91-.18,1.02-1.34,1.83-2.72,2.22-1.38.4-2.76.49-2.75-.84.01-1.49-.26-2.71-.37-3.05-.2-.57-.5-1.13-.88-1.05ZM112.32,81.6c.17-.79.01-1.52-.91-1.44-.82.07-1.36.79-1.57,1.74s.04,1.57.88,1.44c.94-.14,1.43-.95,1.6-1.74Z"/>
    <path class="cls-2" d="M136.85,87.16c.17,1.23-.5,1.66-2.39,1.62-1.11-.03-2.42-.28-2.54-1.09-.26-1.95-.38-2.93-.61-4.89-.56,1.92-.86,2.89-1.48,4.84-.24.79-.96,1.31-2.53,1.48-1.96.22-2.51-.3-2.68-.95-.51-1.92-.75-2.89-1.17-4.89-.44,2.14-.67,3.22-1.14,5.39-.2.91-1.7,1.49-2.91,1.76-2.07.45-2.72.05-2.32-1.41,1.16-4.42,1.72-6.59,2.78-10.85.37-1.43,1.91-2.01,3.69-2.01,1.55,0,2.88.45,3.15,1.62.31,1.41.48,2.11.83,3.49.56-1.42.83-2.13,1.35-3.52.43-1.15,1.83-1.58,3.38-1.58,1.78,0,3.21.5,3.37,1.73.47,3.68.72,5.52,1.22,9.26Z"/>
    <path class="cls-2" d="M140.5,89.36c-1.69-.33-2.7-.95-2.71-2.3-.01-1.41.89-1.82,2.67-1.58,1.78.24,2.57.93,2.57,2.45s-.84,1.76-2.53,1.43Z"/>
  </g>
</svg>